<?xml version="1.0" encoding="UTF-8"?>
<svg xmlns="http://www.w3.org/2000/svg" xmlns:xlink="http://www.w3.org/1999/xlink" width="75pt" height="74.999997pt" viewBox="0 0 75 74.999997" version="1.2">
<defs>
<clipPath id="clip1">
  <path d="M 14.898438 4.683594 L 51 4.683594 L 51 70.683594 L 14.898438 70.683594 Z M 14.898438 4.683594 "/>
</clipPath>
<clipPath id="clip2">
  <path d="M 18 6 L 59.898438 6 L 59.898438 70.683594 L 18 70.683594 Z M 18 6 "/>
</clipPath>
</defs>
<g id="surface1">
<path style=" stroke:none;fill-rule:nonzero;fill:rgb(88.238525%,42.349243%,86.669922%);fill-opacity:1;" d="M 50.09375 34.441406 C 50.132812 34.363281 50.167969 34.285156 50.203125 34.207031 C 50.257812 34.089844 50.308594 33.972656 50.359375 33.855469 C 50.394531 33.777344 50.425781 33.703125 50.457031 33.628906 C 50.511719 33.496094 50.5625 33.363281 50.613281 33.230469 C 50.636719 33.164062 50.664062 33.101562 50.6875 33.039062 C 50.691406 33.023438 50.695312 33.011719 50.703125 32.996094 C 50.738281 32.902344 50.769531 32.804688 50.800781 32.710938 C 50.835938 32.605469 50.871094 32.503906 50.90625 32.398438 C 50.941406 32.289062 50.972656 32.179688 51.003906 32.070312 C 51.035156 31.960938 51.070312 31.855469 51.097656 31.75 C 51.128906 31.640625 51.15625 31.53125 51.179688 31.421875 C 51.210938 31.3125 51.238281 31.203125 51.265625 31.09375 C 51.289062 30.984375 51.308594 30.871094 51.332031 30.761719 C 51.355469 30.652344 51.378906 30.539062 51.398438 30.425781 C 51.421875 30.316406 51.4375 30.207031 51.453125 30.097656 C 51.472656 29.980469 51.492188 29.871094 51.507812 29.753906 C 51.523438 29.640625 51.535156 29.527344 51.546875 29.414062 C 51.5625 29.300781 51.574219 29.191406 51.585938 29.078125 C 51.597656 28.949219 51.605469 28.820312 51.613281 28.695312 C 51.621094 28.59375 51.628906 28.496094 51.636719 28.394531 C 51.644531 28.164062 51.652344 27.9375 51.652344 27.707031 C 51.660156 22.925781 49.378906 19.050781 45.929688 17.160156 L 42.054688 15.027344 C 45.285156 16.804688 47.492188 20.320312 47.75 24.691406 C 47.765625 24.980469 47.773438 25.277344 47.773438 25.574219 C 47.773438 25.804688 47.769531 26.035156 47.757812 26.265625 C 47.753906 26.335938 47.746094 26.40625 47.742188 26.480469 C 47.734375 26.636719 47.722656 26.792969 47.710938 26.949219 C 47.699219 27.035156 47.6875 27.121094 47.679688 27.207031 C 47.664062 27.347656 47.648438 27.488281 47.628906 27.628906 C 47.617188 27.722656 47.601562 27.8125 47.585938 27.90625 C 47.566406 28.039062 47.546875 28.167969 47.523438 28.300781 C 47.503906 28.398438 47.484375 28.492188 47.464844 28.585938 C 47.4375 28.710938 47.414062 28.839844 47.386719 28.964844 C 47.363281 29.0625 47.339844 29.15625 47.3125 29.253906 C 47.285156 29.375 47.253906 29.5 47.21875 29.625 C 47.195312 29.71875 47.164062 29.8125 47.136719 29.90625 C 47.101562 30.027344 47.066406 30.148438 47.027344 30.269531 C 46.996094 30.367188 46.964844 30.460938 46.929688 30.554688 C 46.890625 30.675781 46.851562 30.792969 46.808594 30.910156 C 46.785156 30.96875 46.761719 31.027344 46.742188 31.085938 C 46.6875 31.222656 46.632812 31.363281 46.578125 31.5 C 46.546875 31.574219 46.515625 31.644531 46.484375 31.71875 C 46.433594 31.839844 46.378906 31.960938 46.324219 32.082031 C 46.289062 32.15625 46.253906 32.230469 46.21875 32.308594 C 46.164062 32.425781 46.105469 32.542969 46.046875 32.660156 C 46.007812 32.730469 45.972656 32.804688 45.9375 32.875 C 45.902344 32.941406 45.863281 33.007812 45.824219 33.078125 C 45.714844 33.285156 45.597656 33.488281 45.476562 33.6875 C 45.441406 33.746094 45.410156 33.804688 45.371094 33.863281 C 45.222656 34.105469 45.066406 34.34375 44.90625 34.578125 C 44.875 34.621094 44.84375 34.660156 44.816406 34.703125 C 44.6875 34.886719 44.554688 35.066406 44.421875 35.242188 C 44.375 35.304688 44.324219 35.367188 44.273438 35.429688 C 44.136719 35.605469 43.996094 35.773438 43.851562 35.941406 C 43.816406 35.980469 43.785156 36.019531 43.753906 36.058594 C 43.574219 36.261719 43.390625 36.457031 43.203125 36.652344 C 43.15625 36.699219 43.109375 36.746094 43.0625 36.792969 C 42.917969 36.9375 42.765625 37.082031 42.617188 37.222656 C 42.558594 37.277344 42.5 37.328125 42.441406 37.382812 C 42.234375 37.570312 42.019531 37.753906 41.800781 37.929688 C 41.78125 37.945312 41.761719 37.960938 41.742188 37.972656 C 41.535156 38.136719 41.328125 38.292969 41.117188 38.441406 C 41.039062 38.496094 40.960938 38.550781 40.882812 38.605469 C 40.808594 38.65625 40.738281 38.707031 40.664062 38.753906 C 40.5625 38.820312 40.460938 38.882812 40.359375 38.945312 C 40.289062 38.988281 40.214844 39.035156 40.140625 39.078125 C 40.03125 39.144531 39.925781 39.203125 39.816406 39.265625 C 39.746094 39.304688 39.675781 39.34375 39.605469 39.382812 C 39.484375 39.449219 39.359375 39.507812 39.238281 39.570312 C 39.175781 39.601562 39.117188 39.632812 39.058594 39.660156 C 38.886719 39.742188 38.710938 39.820312 38.535156 39.894531 C 38.496094 39.914062 38.453125 39.929688 38.410156 39.945312 C 38.273438 40.003906 38.132812 40.058594 37.992188 40.113281 C 37.9375 40.132812 37.886719 40.152344 37.832031 40.167969 C 37.671875 40.226562 37.515625 40.28125 37.351562 40.332031 C 37.332031 40.339844 37.308594 40.347656 37.285156 40.355469 C 37.101562 40.410156 36.917969 40.460938 36.730469 40.511719 C 36.679688 40.523438 36.632812 40.535156 36.582031 40.546875 C 36.441406 40.578125 36.296875 40.613281 36.152344 40.644531 C 36.097656 40.652344 36.042969 40.664062 35.988281 40.675781 C 35.800781 40.710938 35.609375 40.746094 35.417969 40.773438 C 35.25 40.796875 35.078125 40.816406 34.90625 40.832031 C 34.855469 40.835938 34.800781 40.839844 34.746094 40.847656 C 34.628906 40.855469 34.511719 40.863281 34.394531 40.871094 C 34.335938 40.875 34.273438 40.875 34.214844 40.878906 C 34.101562 40.882812 33.988281 40.882812 33.875 40.886719 C 33.820312 40.886719 33.765625 40.886719 33.707031 40.886719 C 33.570312 40.882812 33.429688 40.878906 33.292969 40.875 C 33.265625 40.871094 33.242188 40.871094 33.214844 40.871094 C 33.054688 40.863281 32.890625 40.847656 32.730469 40.832031 C 32.683594 40.828125 32.636719 40.820312 32.589844 40.816406 C 32.476562 40.800781 32.363281 40.789062 32.25 40.769531 C 32.195312 40.761719 32.136719 40.753906 32.082031 40.746094 C 31.976562 40.726562 31.867188 40.707031 31.765625 40.6875 C 31.710938 40.675781 31.65625 40.667969 31.601562 40.65625 C 31.484375 40.628906 31.363281 40.601562 31.246094 40.570312 C 31.210938 40.5625 31.175781 40.554688 31.144531 40.546875 C 30.988281 40.507812 30.835938 40.460938 30.683594 40.414062 C 30.644531 40.402344 30.605469 40.390625 30.566406 40.375 C 30.453125 40.339844 30.339844 40.300781 30.230469 40.261719 C 30.179688 40.242188 30.132812 40.222656 30.082031 40.203125 C 29.976562 40.164062 29.875 40.121094 29.773438 40.078125 C 29.726562 40.058594 29.679688 40.042969 29.636719 40.019531 C 29.503906 39.964844 29.375 39.902344 29.246094 39.839844 C 29.234375 39.835938 29.21875 39.828125 29.207031 39.820312 C 29.082031 39.761719 28.960938 39.695312 28.835938 39.628906 C 29.804688 40.160156 30.777344 40.695312 31.746094 41.226562 C 32.070312 41.40625 32.390625 41.582031 32.714844 41.757812 C 32.835938 41.828125 32.960938 41.890625 33.085938 41.953125 C 33.085938 41.953125 33.089844 41.953125 33.089844 41.957031 C 33.101562 41.960938 33.113281 41.964844 33.121094 41.96875 C 33.25 42.035156 33.382812 42.09375 33.511719 42.152344 C 33.558594 42.171875 33.605469 42.191406 33.652344 42.210938 C 33.75 42.253906 33.855469 42.296875 33.957031 42.335938 C 34.007812 42.355469 34.058594 42.371094 34.109375 42.390625 C 34.21875 42.433594 34.332031 42.46875 34.445312 42.507812 C 34.484375 42.519531 34.523438 42.53125 34.5625 42.546875 C 34.714844 42.59375 34.867188 42.636719 35.019531 42.675781 C 35.027344 42.679688 35.03125 42.679688 35.039062 42.683594 C 35.066406 42.691406 35.09375 42.695312 35.125 42.703125 C 35.242188 42.734375 35.359375 42.761719 35.480469 42.785156 C 35.535156 42.796875 35.589844 42.808594 35.640625 42.816406 C 35.746094 42.839844 35.851562 42.859375 35.960938 42.875 C 36.015625 42.886719 36.070312 42.894531 36.125 42.902344 C 36.238281 42.917969 36.351562 42.933594 36.46875 42.945312 C 36.515625 42.953125 36.5625 42.957031 36.609375 42.964844 C 36.769531 42.980469 36.929688 42.992188 37.09375 43 C 37.117188 43.003906 37.144531 43.003906 37.167969 43.003906 C 37.308594 43.011719 37.445312 43.015625 37.585938 43.015625 C 37.640625 43.015625 37.699219 43.015625 37.753906 43.015625 C 37.867188 43.015625 37.980469 43.011719 38.09375 43.007812 C 38.152344 43.007812 38.210938 43.003906 38.273438 43 C 38.390625 42.996094 38.503906 42.984375 38.625 42.976562 C 38.675781 42.972656 38.730469 42.96875 38.785156 42.964844 C 38.953125 42.945312 39.125 42.925781 39.296875 42.902344 C 39.488281 42.875 39.679688 42.84375 39.867188 42.804688 C 39.921875 42.796875 39.976562 42.785156 40.027344 42.773438 C 40.171875 42.742188 40.316406 42.710938 40.457031 42.675781 C 40.507812 42.664062 40.558594 42.652344 40.609375 42.640625 C 40.792969 42.59375 40.976562 42.539062 41.160156 42.484375 C 41.183594 42.476562 41.207031 42.46875 41.234375 42.460938 C 41.390625 42.410156 41.550781 42.359375 41.710938 42.300781 C 41.761719 42.28125 41.816406 42.261719 41.871094 42.242188 C 42.007812 42.191406 42.148438 42.136719 42.285156 42.078125 C 42.328125 42.058594 42.371094 42.042969 42.414062 42.023438 C 42.578125 41.957031 42.742188 41.882812 42.902344 41.808594 C 42.910156 41.800781 42.921875 41.796875 42.933594 41.789062 C 42.996094 41.761719 43.058594 41.726562 43.121094 41.695312 C 43.242188 41.636719 43.363281 41.578125 43.480469 41.515625 C 43.550781 41.472656 43.625 41.433594 43.695312 41.394531 C 43.804688 41.332031 43.910156 41.273438 44.015625 41.210938 C 44.089844 41.167969 44.164062 41.121094 44.238281 41.074219 C 44.339844 41.011719 44.441406 40.949219 44.542969 40.882812 C 44.613281 40.835938 44.6875 40.785156 44.757812 40.738281 C 44.808594 40.707031 44.855469 40.675781 44.902344 40.640625 C 44.933594 40.617188 44.964844 40.59375 44.996094 40.570312 C 45.207031 40.421875 45.414062 40.269531 45.617188 40.105469 C 45.636719 40.089844 45.65625 40.078125 45.675781 40.058594 C 45.898438 39.882812 46.113281 39.699219 46.320312 39.511719 C 46.347656 39.488281 46.371094 39.46875 46.394531 39.449219 C 46.425781 39.417969 46.457031 39.386719 46.492188 39.355469 C 46.644531 39.214844 46.792969 39.070312 46.941406 38.921875 C 46.988281 38.875 47.035156 38.828125 47.082031 38.78125 C 47.265625 38.589844 47.449219 38.394531 47.628906 38.191406 C 47.636719 38.183594 47.644531 38.171875 47.652344 38.164062 C 47.679688 38.132812 47.707031 38.097656 47.734375 38.066406 C 47.875 37.898438 48.015625 37.730469 48.148438 37.5625 C 48.199219 37.5 48.25 37.433594 48.300781 37.371094 C 48.429688 37.199219 48.558594 37.023438 48.683594 36.847656 C 48.710938 36.8125 48.738281 36.777344 48.765625 36.742188 C 48.769531 36.730469 48.777344 36.714844 48.785156 36.703125 C 48.945312 36.472656 49.101562 36.234375 49.25 35.996094 C 49.285156 35.9375 49.320312 35.875 49.355469 35.816406 C 49.476562 35.617188 49.59375 35.414062 49.703125 35.207031 C 49.722656 35.167969 49.746094 35.132812 49.769531 35.09375 C 49.78125 35.066406 49.796875 35.035156 49.8125 35.007812 C 49.851562 34.933594 49.886719 34.859375 49.925781 34.785156 C 49.984375 34.671875 50.039062 34.554688 50.09375 34.441406 "/>
<g clip-path="url(#clip1)" clip-rule="nonzero">
<path style=" stroke:none;fill-rule:nonzero;fill:rgb(88.238525%,42.349243%,86.669922%);fill-opacity:1;" d="M 18.828125 30.835938 C 18.847656 30.585938 18.859375 30.335938 18.882812 30.085938 C 18.898438 29.933594 18.917969 29.777344 18.9375 29.625 C 18.960938 29.402344 18.984375 29.179688 19.011719 28.957031 C 19.035156 28.792969 19.066406 28.628906 19.09375 28.46875 C 19.125 28.257812 19.15625 28.042969 19.195312 27.835938 C 19.222656 27.667969 19.261719 27.503906 19.296875 27.335938 C 19.335938 27.132812 19.375 26.929688 19.421875 26.726562 C 19.460938 26.558594 19.503906 26.390625 19.546875 26.222656 C 19.597656 26.027344 19.644531 25.828125 19.695312 25.632812 C 19.742188 25.464844 19.796875 25.296875 19.84375 25.128906 C 19.902344 24.9375 19.957031 24.742188 20.015625 24.554688 C 20.070312 24.386719 20.128906 24.21875 20.1875 24.050781 C 20.253906 23.863281 20.316406 23.671875 20.382812 23.484375 C 20.421875 23.382812 20.460938 23.28125 20.5 23.179688 C 20.585938 22.953125 20.675781 22.726562 20.765625 22.503906 C 20.816406 22.378906 20.871094 22.257812 20.921875 22.136719 C 21.011719 21.933594 21.097656 21.730469 21.191406 21.53125 C 21.246094 21.40625 21.304688 21.28125 21.363281 21.15625 C 21.460938 20.960938 21.558594 20.761719 21.65625 20.566406 C 21.714844 20.449219 21.777344 20.328125 21.835938 20.210938 C 21.988281 19.925781 22.144531 19.636719 22.304688 19.355469 C 22.308594 19.34375 22.316406 19.332031 22.324219 19.324219 C 22.484375 19.042969 22.648438 18.769531 22.816406 18.496094 C 22.867188 18.414062 22.917969 18.332031 22.96875 18.253906 C 23.109375 18.03125 23.253906 17.8125 23.402344 17.597656 C 23.445312 17.53125 23.488281 17.464844 23.53125 17.402344 C 23.714844 17.136719 23.90625 16.871094 24.097656 16.613281 C 24.140625 16.550781 24.1875 16.496094 24.230469 16.433594 C 24.394531 16.21875 24.5625 16.003906 24.730469 15.792969 C 24.777344 15.734375 24.824219 15.675781 24.871094 15.617188 C 25.078125 15.367188 25.285156 15.121094 25.496094 14.882812 C 25.542969 14.828125 25.589844 14.777344 25.632812 14.726562 C 25.8125 14.527344 25.996094 14.328125 26.179688 14.132812 C 26.238281 14.078125 26.292969 14.015625 26.351562 13.957031 C 26.574219 13.726562 26.800781 13.5 27.03125 13.277344 C 27.070312 13.238281 27.109375 13.203125 27.152344 13.167969 C 27.347656 12.980469 27.546875 12.796875 27.75 12.617188 C 27.824219 12.554688 27.898438 12.488281 27.96875 12.421875 C 28.183594 12.238281 28.402344 12.054688 28.621094 11.878906 C 28.65625 11.847656 28.6875 11.820312 28.722656 11.792969 C 28.972656 11.589844 29.230469 11.394531 29.488281 11.203125 C 29.5625 11.152344 29.632812 11.101562 29.707031 11.050781 C 29.886719 10.917969 30.074219 10.785156 30.257812 10.660156 C 30.378906 10.578125 30.5 10.496094 30.621094 10.417969 C 30.789062 10.308594 30.960938 10.203125 31.128906 10.097656 C 31.253906 10.019531 31.371094 9.945312 31.496094 9.871094 C 31.675781 9.765625 31.855469 9.664062 32.035156 9.566406 C 32.152344 9.496094 32.269531 9.429688 32.390625 9.367188 C 32.589844 9.257812 32.796875 9.15625 33 9.054688 C 33.101562 9.007812 33.199219 8.953125 33.300781 8.90625 C 33.585938 8.769531 33.875 8.636719 34.167969 8.515625 C 34.238281 8.484375 34.308594 8.457031 34.378906 8.425781 C 34.609375 8.332031 34.84375 8.238281 35.074219 8.152344 C 35.164062 8.121094 35.253906 8.085938 35.339844 8.054688 C 35.605469 7.960938 35.871094 7.871094 36.136719 7.785156 C 36.175781 7.773438 36.214844 7.761719 36.253906 7.75 C 36.5625 7.65625 36.867188 7.570312 37.175781 7.492188 C 37.261719 7.46875 37.34375 7.449219 37.429688 7.429688 C 37.664062 7.371094 37.902344 7.316406 38.140625 7.269531 C 38.230469 7.25 38.324219 7.230469 38.414062 7.210938 C 38.730469 7.152344 39.046875 7.097656 39.363281 7.050781 C 39.648438 7.011719 39.933594 6.980469 40.21875 6.953125 C 40.308594 6.941406 40.394531 6.9375 40.484375 6.929688 C 40.683594 6.914062 40.878906 6.898438 41.074219 6.890625 C 41.171875 6.882812 41.269531 6.878906 41.371094 6.875 C 41.5625 6.867188 41.753906 6.863281 41.941406 6.863281 C 42.03125 6.863281 42.125 6.863281 42.214844 6.863281 C 42.449219 6.863281 42.683594 6.871094 42.917969 6.882812 C 42.957031 6.886719 42.996094 6.886719 43.039062 6.886719 C 43.308594 6.902344 43.578125 6.925781 43.847656 6.953125 C 43.925781 6.960938 44.003906 6.96875 44.082031 6.980469 C 44.273438 7 44.460938 7.023438 44.652344 7.054688 C 44.746094 7.066406 44.839844 7.082031 44.929688 7.097656 C 45.109375 7.125 45.285156 7.160156 45.457031 7.191406 C 45.546875 7.210938 45.636719 7.226562 45.726562 7.246094 C 45.925781 7.289062 46.121094 7.335938 46.320312 7.386719 C 46.378906 7.398438 46.4375 7.410156 46.496094 7.425781 C 46.753906 7.496094 47.007812 7.570312 47.261719 7.648438 C 47.328125 7.667969 47.390625 7.691406 47.457031 7.710938 C 47.644531 7.773438 47.832031 7.835938 48.015625 7.90625 C 48.101562 7.9375 48.183594 7.96875 48.265625 8 C 48.441406 8.066406 48.609375 8.132812 48.78125 8.207031 C 48.855469 8.238281 48.933594 8.269531 49.007812 8.304688 C 49.226562 8.398438 49.441406 8.5 49.65625 8.601562 C 49.675781 8.613281 49.699219 8.625 49.722656 8.636719 C 49.929688 8.738281 50.136719 8.847656 50.339844 8.957031 L 46.460938 6.828125 C 46.425781 6.804688 46.386719 6.789062 46.347656 6.769531 C 46.183594 6.679688 46.015625 6.589844 45.847656 6.503906 C 45.84375 6.503906 45.839844 6.5 45.835938 6.5 C 45.8125 6.488281 45.789062 6.480469 45.765625 6.46875 C 45.558594 6.363281 45.347656 6.265625 45.132812 6.171875 C 45.054688 6.140625 44.980469 6.109375 44.902344 6.074219 C 44.734375 6.003906 44.5625 5.933594 44.386719 5.867188 C 44.304688 5.835938 44.222656 5.804688 44.140625 5.773438 C 43.953125 5.707031 43.761719 5.640625 43.574219 5.578125 C 43.511719 5.558594 43.449219 5.535156 43.386719 5.515625 C 43.132812 5.4375 42.875 5.363281 42.617188 5.296875 C 42.609375 5.292969 42.597656 5.289062 42.589844 5.289062 C 42.542969 5.273438 42.496094 5.265625 42.449219 5.253906 C 42.25 5.207031 42.050781 5.15625 41.851562 5.117188 C 41.761719 5.097656 41.671875 5.078125 41.585938 5.0625 C 41.410156 5.027344 41.230469 4.996094 41.054688 4.964844 C 40.960938 4.953125 40.867188 4.9375 40.773438 4.921875 C 40.585938 4.894531 40.394531 4.871094 40.203125 4.847656 C 40.125 4.839844 40.046875 4.828125 39.972656 4.820312 C 39.703125 4.792969 39.433594 4.773438 39.160156 4.757812 C 39.121094 4.753906 39.082031 4.753906 39.039062 4.753906 C 38.808594 4.742188 38.574219 4.734375 38.339844 4.730469 C 38.246094 4.730469 38.15625 4.734375 38.0625 4.734375 C 37.875 4.734375 37.683594 4.738281 37.492188 4.746094 C 37.394531 4.75 37.296875 4.753906 37.195312 4.757812 C 37 4.769531 36.804688 4.78125 36.609375 4.800781 C 36.519531 4.804688 36.429688 4.8125 36.339844 4.820312 C 36.058594 4.847656 35.773438 4.878906 35.484375 4.921875 C 35.167969 4.964844 34.851562 5.023438 34.539062 5.082031 C 34.445312 5.101562 34.355469 5.121094 34.261719 5.136719 C 34.023438 5.1875 33.789062 5.242188 33.554688 5.296875 C 33.46875 5.316406 33.382812 5.335938 33.296875 5.359375 C 32.992188 5.4375 32.683594 5.523438 32.378906 5.617188 C 32.335938 5.628906 32.292969 5.644531 32.253906 5.660156 C 31.988281 5.742188 31.726562 5.828125 31.46875 5.921875 C 31.375 5.957031 31.285156 5.988281 31.191406 6.023438 C 30.964844 6.109375 30.738281 6.199219 30.511719 6.292969 C 30.433594 6.324219 30.359375 6.351562 30.285156 6.382812 C 30.015625 6.5 29.746094 6.621094 29.476562 6.746094 C 29.460938 6.753906 29.445312 6.765625 29.425781 6.773438 C 29.320312 6.824219 29.210938 6.878906 29.105469 6.933594 C 28.90625 7.03125 28.707031 7.132812 28.511719 7.234375 C 28.394531 7.300781 28.277344 7.367188 28.15625 7.433594 C 27.976562 7.535156 27.796875 7.636719 27.617188 7.742188 C 27.496094 7.8125 27.375 7.890625 27.253906 7.964844 C 27.082031 8.070312 26.914062 8.175781 26.742188 8.289062 C 26.621094 8.367188 26.5 8.449219 26.378906 8.53125 C 26.300781 8.585938 26.21875 8.636719 26.140625 8.691406 C 26.035156 8.765625 25.933594 8.84375 25.828125 8.917969 C 25.757812 8.96875 25.683594 9.019531 25.613281 9.074219 C 25.351562 9.265625 25.097656 9.460938 24.84375 9.664062 C 24.8125 9.691406 24.78125 9.71875 24.746094 9.742188 C 24.527344 9.921875 24.308594 10.105469 24.089844 10.292969 C 24.019531 10.359375 23.945312 10.421875 23.875 10.488281 C 23.800781 10.550781 23.726562 10.613281 23.65625 10.679688 C 23.527344 10.796875 23.398438 10.917969 23.269531 11.039062 C 23.234375 11.074219 23.195312 11.109375 23.15625 11.144531 C 22.925781 11.371094 22.695312 11.597656 22.46875 11.828125 C 22.417969 11.886719 22.363281 11.941406 22.308594 12 C 22.117188 12.199219 21.933594 12.402344 21.75 12.609375 C 21.707031 12.652344 21.664062 12.699219 21.625 12.746094 C 21.601562 12.769531 21.582031 12.792969 21.558594 12.816406 C 21.367188 13.039062 21.179688 13.261719 20.992188 13.488281 C 20.945312 13.546875 20.902344 13.601562 20.855469 13.660156 C 20.6875 13.871094 20.515625 14.089844 20.351562 14.308594 C 20.308594 14.367188 20.265625 14.421875 20.222656 14.480469 C 20.046875 14.714844 19.875 14.949219 19.710938 15.191406 C 19.691406 15.21875 19.671875 15.246094 19.652344 15.273438 C 19.609375 15.335938 19.570312 15.398438 19.527344 15.457031 C 19.378906 15.679688 19.234375 15.902344 19.089844 16.125 C 19.042969 16.203125 18.992188 16.28125 18.941406 16.363281 C 18.769531 16.640625 18.601562 16.917969 18.4375 17.203125 C 18.4375 17.210938 18.433594 17.214844 18.425781 17.222656 C 18.292969 17.457031 18.164062 17.695312 18.035156 17.933594 C 18.007812 17.984375 17.984375 18.035156 17.957031 18.085938 C 17.898438 18.199219 17.839844 18.316406 17.78125 18.429688 C 17.679688 18.628906 17.582031 18.828125 17.484375 19.03125 C 17.429688 19.152344 17.371094 19.273438 17.316406 19.398438 C 17.222656 19.601562 17.132812 19.804688 17.042969 20.011719 C 16.992188 20.128906 16.941406 20.25 16.890625 20.371094 C 16.796875 20.597656 16.710938 20.824219 16.621094 21.054688 C 16.585938 21.152344 16.542969 21.253906 16.507812 21.355469 C 16.5 21.378906 16.488281 21.402344 16.480469 21.425781 C 16.417969 21.589844 16.367188 21.757812 16.3125 21.921875 C 16.253906 22.089844 16.195312 22.253906 16.140625 22.421875 C 16.078125 22.613281 16.023438 22.804688 15.96875 22.996094 C 15.917969 23.164062 15.867188 23.332031 15.820312 23.5 C 15.765625 23.695312 15.71875 23.894531 15.671875 24.09375 C 15.628906 24.261719 15.582031 24.425781 15.546875 24.597656 C 15.5 24.796875 15.460938 25.003906 15.417969 25.207031 C 15.386719 25.371094 15.347656 25.539062 15.316406 25.703125 C 15.277344 25.914062 15.246094 26.125 15.214844 26.335938 C 15.1875 26.5 15.160156 26.660156 15.136719 26.824219 C 15.105469 27.046875 15.082031 27.269531 15.058594 27.492188 C 15.042969 27.648438 15.019531 27.800781 15.007812 27.957031 C 14.980469 28.207031 14.96875 28.457031 14.953125 28.707031 C 14.945312 28.835938 14.933594 28.964844 14.925781 29.097656 C 14.90625 29.476562 14.898438 29.859375 14.898438 30.246094 C 14.890625 33.710938 15.605469 36.894531 16.890625 39.640625 C 16.964844 39.796875 34.449219 67.039062 35.367188 68.472656 L 39.246094 70.605469 C 38.324219 69.171875 20.839844 41.925781 20.765625 41.769531 C 19.484375 39.023438 18.769531 35.839844 18.773438 32.375 C 18.773438 31.992188 18.785156 31.609375 18.804688 31.226562 C 18.808594 31.097656 18.820312 30.964844 18.828125 30.835938 "/>
</g>
<g clip-path="url(#clip2)" clip-rule="nonzero">
<path style=" stroke:none;fill-rule:nonzero;fill:rgb(11.759949%,25.878906%,39.99939%);fill-opacity:1;" d="M 39.296875 42.902344 C 32.488281 43.871094 26.980469 38.632812 26.996094 31.207031 C 27.007812 23.789062 32.539062 16.984375 39.347656 16.015625 C 46.15625 15.046875 51.664062 20.285156 51.652344 27.707031 C 51.636719 35.128906 46.105469 41.9375 39.296875 42.902344 Z M 39.363281 7.050781 C 28.015625 8.664062 18.796875 20 18.773438 32.375 C 18.769531 35.839844 19.484375 39.023438 20.765625 41.769531 C 20.839844 41.925781 38.324219 69.171875 39.246094 70.605469 L 57.617188 37.027344 C 59.050781 33.777344 59.863281 30.203125 59.871094 26.539062 C 59.894531 14.164062 50.714844 5.441406 39.363281 7.050781 "/>
</g>
</g>
</svg>
