<?xml version="1.0" encoding="UTF-8" standalone="no"?>
<svg
   xmlns:dc="http://purl.org/dc/elements/1.1/"
   xmlns:cc="http://creativecommons.org/ns#"
   xmlns:rdf="http://www.w3.org/1999/02/22-rdf-syntax-ns#"
   xmlns:svg="http://www.w3.org/2000/svg"
   xmlns="http://www.w3.org/2000/svg"
   version="1.1"
   id="svg2"
   viewBox="0 0 172.53632 25.887087"
   height="7.3059111mm"
   width="48.693584mm">
  <defs
     id="defs4" />
  <metadata
     id="metadata7">
    <rdf:RDF>
      <cc:Work
         rdf:about="">
        <dc:format>image/svg+xml</dc:format>
        <dc:type
           rdf:resource="http://purl.org/dc/dcmitype/StillImage" />
        <dc:title></dc:title>
      </cc:Work>
    </rdf:RDF>
  </metadata>
  <g
     transform="translate(-22.084832,-183.28824)"
     id="layer1">
    <path
       id="text3336"
       d="m 129.59834,183.28824 c -1.64703,0 -3.22183,0.27443 -4.72564,0.82344 -1.47997,0.54902 -2.79317,1.37232 -3.93893,2.47035 -1.12189,1.09803 -2.01704,2.45912 -2.68539,4.08229 -0.66837,1.5993 -1.00177,3.46137 -1.00177,5.58582 0,2.12443 0.32231,3.99761 0.96681,5.62078 0.64449,1.59931 1.52678,2.94754 2.64867,4.04558 1.12189,1.07414 2.4351,1.88636 3.93891,2.43538 1.50383,0.54901 3.10257,0.82345 4.79734,0.82345 1.74252,0 3.36695,-0.27444 4.87078,-0.82345 1.52768,-0.54902 2.8409,-1.36124 3.93891,-2.43538 1.09804,-1.09804 1.95638,-2.44627 2.57701,-4.04558 0.64449,-1.62317 0.96682,-3.49635 0.96682,-5.62078 0,-2.12445 -0.32233,-3.98652 -0.96682,-5.58582 -0.6445,-1.62317 -1.52678,-2.98426 -2.64868,-4.08229 -1.1219,-1.09803 -2.43512,-1.92133 -3.93893,-2.47035 -1.50382,-0.54901 -3.1043,-0.82344 -4.79909,-0.82344 z m 24.60035,0.28672 c -1.00255,0 -2.20715,0.0479 -3.61549,0.14336 -1.38447,0.0716 -2.72161,0.22634 -4.01059,0.46505 l 0,24.16851 c 1.28898,0.26256 2.60219,0.43015 3.93892,0.50176 1.33673,0.0955 2.50629,0.14161 3.50884,0.14161 2.19603,0 4.17783,-0.26159 5.94422,-0.78674 1.76639,-0.52514 3.25827,-1.31342 4.47565,-2.3637 1.24125,-1.05029 2.19536,-2.37458 2.86372,-3.97389 0.66836,-1.59929 1.00353,-3.47247 1.00353,-5.62078 0,-2.2438 -0.33517,-4.1666 -1.00353,-5.7659 -0.66836,-1.5993 -1.62247,-2.91076 -2.86372,-3.93717 -1.24125,-1.02642 -2.73313,-1.77966 -4.47565,-2.25706 -1.71865,-0.47741 -3.64145,-0.71505 -5.7659,-0.71505 z m -132.113866,0.28671 0,8.82717 5.585818,0 0,-8.82717 -5.585818,0 z m 14.717205,0 0,8.82717 5.585817,0 0,-8.82717 -5.585817,0 z m 10.95659,0 0,24.81189 5.514147,0 0,-16.2557 c 2.10057,2.45863 4.082349,5.0722 5.944221,7.84113 1.86187,2.76893 3.591404,5.57403 5.190705,8.41457 l 4.690689,0 0,-24.81189 -5.549101,0 0,14.64378 c -0.859325,-1.28898 -1.778396,-2.62615 -2.75707,-4.01061 -0.978681,-1.40834 -1.969567,-2.75657 -2.972121,-4.04556 -0.978674,-1.31286 -1.945619,-2.54316 -2.900427,-3.68893 -0.954809,-1.14576 -1.825991,-2.11096 -2.613705,-2.89868 l -4.547338,0 z m 27.06371,0 0,24.81189 5.585813,0 0,-24.81189 -5.585813,0 z m 12.582521,0 c -0.238704,1.64704 -0.465267,3.49628 -0.680095,5.54911 -0.190962,2.02897 -0.36964,4.15263 -0.536726,6.37255 -0.143219,2.19606 -0.286859,4.4044 -0.430085,6.62432 -0.119352,2.21992 -0.226203,4.30856 -0.321687,6.26591 l 5.442465,0 c 0.07159,-2.41088 0.165621,-5.03554 0.284965,-7.87609 0.11936,-2.84055 0.299788,-5.70637 0.538484,-8.59466 0.429665,1.00255 0.906718,2.11314 1.431859,3.33052 0.525142,1.21738 1.037241,2.43482 1.538508,3.6522 0.525134,1.21737 1.02788,2.38694 1.505279,3.50885 0.4774,1.09801 0.882633,2.04103 1.216821,2.82874 l 3.902212,0 c 0.33418,-0.78771 0.74117,-1.73073 1.21857,-2.82874 0.47741,-1.12191 0.96554,-2.29148 1.46682,-3.50885 l 1.57521,-3.6522 c 0.52515,-1.21738 1.00396,-2.32797 1.43362,-3.33052 0.2387,2.88829 0.41737,5.75411 0.53673,8.59466 0.11935,2.84055 0.21511,5.46521 0.28672,7.87609 l 5.44246,0 c -0.0955,-1.95735 -0.21518,-4.04599 -0.3584,-6.26591 -0.11936,-2.21992 -0.263,-4.42826 -0.43008,-6.62432 -0.14323,-2.21992 -0.3219,-4.34358 -0.53673,-6.37255 -0.19097,-2.05283 -0.40643,-3.90207 -0.64513,-5.54911 l -5.08405,0 c -0.42966,0.78772 -0.93066,1.76576 -1.50354,2.93541 -0.54902,1.14576 -1.13469,2.39824 -1.7553,3.75884 -0.59676,1.33674 -1.19351,2.70891 -1.79026,4.11725 -0.59676,1.40833 -1.156719,2.73439 -1.681861,3.97563 -0.525149,-1.24124 -1.086876,-2.5673 -1.683619,-3.97563 -0.596751,-1.40834 -1.204606,-2.78051 -1.825239,-4.11725 -0.596736,-1.3606 -1.182398,-2.61308 -1.755282,-3.75884 -0.549016,-1.16965 -1.037165,-2.14769 -1.466822,-2.93541 l -5.335817,0 z m 91.99909,0 c -0.83545,1.71866 -1.64766,3.48498 -2.43537,5.2991 -0.76386,1.79026 -1.55038,3.68738 -2.36196,5.69247 -0.78772,2.00511 -1.59993,4.14162 -2.43538,6.40928 -0.83546,2.26766 -1.71774,4.73758 -2.64868,7.41104 l 5.79911,0 c 0.26258,-0.85932 0.54986,-1.74161 0.86016,-2.64867 0.33419,-0.90707 0.65651,-1.81505 0.96682,-2.72211 l 9.66636,0 0.93185,2.72211 c 0.33418,0.90706 0.63255,1.78935 0.89512,2.64867 l 5.97919,0 c -0.93093,-2.67346 -1.81322,-5.14338 -2.64867,-7.41104 -0.83546,-2.26766 -1.66053,-4.40417 -2.47211,-6.40928 -0.78771,-2.00509 -1.57423,-3.90221 -2.36194,-5.69247 -0.78772,-1.81412 -1.5871,-3.58044 -2.39868,-5.2991 l -5.33582,0 z m -49.8056,4.3323 c 1.02642,0 1.9455,0.18977 2.75707,0.57169 0.83546,0.38192 1.52797,0.93079 2.077,1.6469 0.57287,0.69223 1.00379,1.53949 1.29022,2.54203 0.31033,0.97867 0.46506,2.07817 0.46506,3.29555 0,1.21737 -0.15473,2.31511 -0.46506,3.29379 -0.28643,0.97869 -0.71735,1.82593 -1.29022,2.54204 -0.54903,0.69222 -1.24154,1.22826 -2.077,1.61017 -0.81157,0.38193 -1.73065,0.57345 -2.75707,0.57345 -1.05029,0 -1.98044,-0.19152 -2.79203,-0.57345 -0.81159,-0.38191 -1.5041,-0.91795 -2.07698,-1.61017 -0.54901,-0.71611 -0.97818,-1.56335 -1.2885,-2.54204 -0.28644,-0.97868 -0.43008,-2.07642 -0.43008,-3.29379 0,-1.19352 0.14364,-2.28017 0.43008,-3.25884 0.31032,-1.00254 0.73949,-1.84979 1.2885,-2.54202 0.57288,-0.71611 1.26539,-1.26498 2.07698,-1.64691 0.81159,-0.40579 1.74174,-0.6084 2.79203,-0.6084 z m 24.88707,0.14336 c 2.79282,0 4.83356,0.66682 6.12255,2.00354 1.28898,1.33674 1.93363,3.30743 1.93363,5.90927 0,2.48249 -0.67969,4.42748 -2.04027,5.83583 -1.33673,1.40833 -3.40143,2.11194 -6.19423,2.11194 l -1.25353,0 c -0.33419,-0.0239 -0.63257,-0.0479 -0.89513,-0.0717 l 0,-15.68226 c 0.35804,-0.0478 0.73934,-0.0717 1.14513,-0.0717 0.4058,-0.0239 0.79993,-0.035 1.18185,-0.035 z m 27.46056,1.14513 c 0.14323,0.35805 0.33475,0.84795 0.57345,1.46857 0.23871,0.62062 0.51314,1.33533 0.82345,2.14691 0.33418,0.8116 0.68044,1.70673 1.0385,2.68539 0.35804,0.97868 0.72823,2.00636 1.11017,3.08052 l -7.05441,0 c 0.38193,-1.07416 0.75213,-2.10184 1.11019,-3.08052 0.38191,-0.97866 0.72816,-1.87379 1.03848,-2.68539 0.31031,-0.81158 0.58475,-1.52629 0.82345,-2.14691 0.2387,-0.62062 0.41738,-1.11052 0.53672,-1.46857 z m -159.861146,9.28173 0,0.52798 c 0,1.45608 0.191525,2.79323 0.573446,4.01061 0.405793,1.19351 1.015386,2.23228 1.826971,3.11547 0.835453,0.85933 1.885322,1.539 3.15044,2.04028 1.265118,0.4774 2.768098,0.7168 4.510614,0.7168 1.766394,0 3.295065,-0.2394 4.584048,-0.7168 1.28899,-0.47742 2.349949,-1.14599 3.185401,-2.00532 0.835459,-0.88318 1.456153,-1.93305 1.861946,-3.15043 0.405786,-1.21738 0.610156,-2.55453 0.610156,-4.01061 l 0,-0.52798 -5.585817,0 0,0.0629 c 0,2.0051 -0.430925,3.42516 -1.290251,4.26062 -0.835452,0.83545 -1.933203,1.25353 -3.293805,1.25353 -0.668357,0 -1.289058,-0.0958 -1.861939,-0.28672 -0.549009,-0.19097 -1.026066,-0.50044 -1.431852,-0.93011 -0.381928,-0.45353 -0.6914,-1.02634 -0.930105,-1.71858 -0.214827,-0.7161 -0.323435,-1.57619 -0.323435,-2.57874 l 0,-0.0629 -5.585818,0 z"
       style="font-style:normal;font-weight:normal;font-size:40px;line-height:125%;font-family:sans-serif;letter-spacing:0px;word-spacing:0px;fill:#ffffff;fill-opacity:1;stroke:none;stroke-width:1px;stroke-linecap:butt;stroke-linejoin:miter;stroke-opacity:1" />
  </g>
</svg>
